<svg width="100%" height="100%" id="svg" viewBox="0 0 1440 600"
    xmlns="http://www.w3.org/2000/svg" class="transition duration-300 ease-in-out delay-150">
    <path d="M 0,600 C 0,600 0,200 0,200 C 151.92857142857144,164.89285714285714 303.8571428571429,129.78571428571428 415,149 C 526.1428571428571,168.21428571428572 596.5,241.75 715,269 C 833.5,296.25 1000.1428571428571,277.21428571428567 1129,258 C 1257.857142857143,238.7857142857143 1348.9285714285716,219.39285714285717 1440,200 C 1440,200 1440,600 1440,600 Z" stroke="none" stroke-width="0" fill="#3f72af88" class="transition-all duration-300 ease-in-out delay-150 path-0" transform="rotate(-180 720 300)"></path>
    <path d="M 0,600 C 0,600 0,400 0,400 C 154.53571428571428,361.42857142857144 309.07142857142856,322.85714285714283 408,327 C 506.92857142857144,331.14285714285717 550.25,378 670,378 C 789.75,378 985.9285714285713,331.14285714285717 1127,327 C 1268.0714285714287,322.85714285714283 1354.0357142857142,361.42857142857144 1440,400 C 1440,400 1440,600 1440,600 Z" stroke="none" stroke-width="0" fill="#3f72afff" class="transition-all duration-300 ease-in-out delay-150 path-1" transform="rotate(-180 720 300)"></path>
</svg>
