<svg width="100%" height="100%" id="svg" viewBox="0 0 1440 600" xmlns="http://www.w3.org/2000/svg" class="transition duration-300 ease-in-out delay-150"><defs><linearGradient id="gradient" x1="50%" y1="100%" x2="50%" y2="0%"><stop offset="5%" stop-color="#418baf44"></stop><stop offset="95%" stop-color="#199be244"></stop></linearGradient></defs><path d="M 0,600 C 0,600 0,120 0,120 C 66,125.4897435897436 132,130.9794871794872 214,137 C 296,143.0205128205128 394,149.57179487179488 470,144 C 546,138.42820512820512 600,120.73333333333335 686,118 C 772,115.26666666666665 890,127.49487179487178 973,136 C 1056,144.50512820512822 1104,149.2871794871795 1176,146 C 1248,142.7128205128205 1344,131.35641025641024 1440,120 C 1440,120 1440,600 1440,600 Z" stroke="none" stroke-width="0" fill="url(#gradient)" class="transition-all duration-300 ease-in-out delay-150 path-0" transform="rotate(-180 720 300)"></path><defs><linearGradient id="gradient" x1="50%" y1="100%" x2="50%" y2="0%"><stop offset="5%" stop-color="#418baf66"></stop><stop offset="95%" stop-color="#199be266"></stop></linearGradient></defs><path d="M 0,600 C 0,600 0,240 0,240 C 60.633333333333354,242.24871794871794 121.26666666666671,244.49743589743588 218,248 C 314.7333333333333,251.50256410256412 447.5666666666666,256.2589743589744 518,265 C 588.4333333333334,273.7410256410256 596.4666666666667,286.4666666666667 678,282 C 759.5333333333333,277.5333333333333 914.5666666666668,255.87435897435896 1000,253 C 1085.4333333333332,250.12564102564104 1101.2666666666667,266.0358974358975 1163,267 C 1224.7333333333333,267.9641025641025 1332.3666666666668,253.98205128205126 1440,240 C 1440,240 1440,600 1440,600 Z" stroke="none" stroke-width="0" fill="url(#gradient)" class="transition-all duration-300 ease-in-out delay-150 path-1" transform="rotate(-180 720 300)"></path><defs><linearGradient id="gradient" x1="50%" y1="100%" x2="50%" y2="0%"><stop offset="5%" stop-color="#418baf88"></stop><stop offset="95%" stop-color="#199be288"></stop></linearGradient></defs><path d="M 0,600 C 0,600 0,360 0,360 C 54.04102564102564,369.4307692307692 108.08205128205128,378.8615384615385 200,365 C 291.9179487179487,351.1384615384615 421.7128205128206,313.9846153846154 518,315 C 614.2871794871794,316.0153846153846 677.0666666666668,355.2 752,367 C 826.9333333333332,378.8 914.0205128205127,363.2153846153846 999,365 C 1083.9794871794873,366.7846153846154 1166.8512820512822,385.9384615384615 1240,388 C 1313.1487179487178,390.0615384615385 1376.5743589743588,375.03076923076924 1440,360 C 1440,360 1440,600 1440,600 Z" stroke="none" stroke-width="0" fill="url(#gradient)" class="transition-all duration-300 ease-in-out delay-150 path-2" transform="rotate(-180 720 300)"></path><defs><linearGradient id="gradient" x1="50%" y1="100%" x2="50%" y2="0%"><stop offset="5%" stop-color="#418bafff"></stop><stop offset="95%" stop-color="#199be2ff"></stop></linearGradient></defs><path d="M 0,600 C 0,600 0,480 0,480 C 68.85897435897436,468.36153846153843 137.71794871794873,456.7230769230769 214,450 C 290.28205128205127,443.2769230769231 373.98717948717945,441.46923076923076 451,435 C 528.0128205128206,428.53076923076924 598.3333333333334,417.40000000000003 678,437 C 757.6666666666666,456.59999999999997 846.6794871794873,506.9307692307692 936,514 C 1025.3205128205127,521.0692307692308 1114.9487179487178,484.87692307692305 1199,472 C 1283.0512820512822,459.12307692307695 1361.525641025641,469.5615384615385 1440,480 C 1440,480 1440,600 1440,600 Z" stroke="none" stroke-width="0" fill="url(#gradient)" class="transition-all duration-300 ease-in-out delay-150 path-3" transform="rotate(-180 720 300)"></path></svg>